<svg version="1.1" id="Layer_1" xmlns="http://www.w3.org/2000/svg" xmlns:xlink="http://www.w3.org/1999/xlink" x="0px" y="0px"
	 width="60px" height="60px" viewBox="0 0 60 60" style="enable-background:new 0 0 60 60;" xml:space="preserve">
<style type="text/css">
	.st0{fill:#333333;}
</style>
<path class="st0" d="M44.4,8.9H15.6c-3.7,0-6.7,3-6.7,6.7v28.8c0,3.7,3,6.7,6.7,6.7h28.8c3.7,0,6.7-3,6.7-6.7V15.6
	C51.1,11.9,48.1,8.9,44.4,8.9z M24.9,27.8c0.2-0.5,0.5-1,0.7-1.6c0.6-1.2,1.2-2.4,1.2-2.4c0.1-0.1,0.1-0.1,0.3-0.1
	c0.3,0,2.1,0,2.1,0s-0.3,0.7-0.7,1.5c-0.4,0.8-0.7,1.5-0.8,1.5c-0.1,0.1-0.1,0.3,0,0.4v0.1v-0.1c0.1-0.1,0.1-0.2,0.3-0.2h0.1h1.1
	c0.6,0,1.1,0,1.1,0s-0.3,0.6-0.6,1.3c-1,2-1.3,2.6-1.3,2.6c-0.1,0.2,0,0.3,0.1,0.3c0,0,0.3,0,0.6,0c0.3,0,0.5,0,0.5,0s0,0,0.1,0
	c0,0,0,0.1-0.3,0.7c-0.5,1-0.6,1.2-0.7,1.2s-0.1,0-0.5,0c-0.6,0-2,0-2.1,0c-0.3-0.1-0.6-0.2-0.7-0.5c-0.1-0.1-0.1-0.4,0-0.6
	c0.1-0.2,0.4-1,1-2.4c0.1-0.1,0.1-0.2,0.1-0.2s0-0.1,0.1-0.1c0-0.1,0.1-0.1,0.1-0.1s-0.3,0-0.7,0c-0.6,0-0.7,0-0.8,0
	c-0.3-0.1-0.5-0.2-0.6-0.4c-0.1-0.1-0.1-0.1-0.1-0.3C24.7,28.2,24.7,28.1,24.9,27.8z M15.5,28c0,0.4-0.2,2-0.2,2.4
	c-0.1,1-0.1,1.5-0.2,1.9c-0.1,0.7-0.3,1.1-0.8,2.1c-0.5,0.9-0.4,0.8-0.5,0.8h-0.1c0,0-0.1-0.2-0.2-0.4c-0.1-0.2-0.3-0.5-0.3-0.7
	c-0.6-1.2-0.7-1.4-0.7-1.5c0,0,0-0.1,0.1-0.2c0.2-0.6,0.3-1.3,0.3-2.4c0-1,0.1-1.5,0.2-2c0-0.1,0-0.4,0-0.6c0-0.3,0-0.4,0.1-0.4
	c0-0.1,0.1-0.1,0.2-0.2c0.1,0,2.2,0,2.3,0c0,0,0,0.1,0,0.2C15.5,27.4,15.5,27.9,15.5,28z M19.5,29.1v5.4v0.2
	c-0.1,0.4-0.2,0.6-0.3,0.9c-0.3,0.4-0.7,0.7-1.3,0.8c-0.2,0-0.6,0-0.8,0c-0.9-0.2-1.4-0.9-1.4-1.9v-0.1h0.8h0.8V29v-5.3h1.2h1.2
	L19.5,29.1z M23.7,33.4c-0.3,0.6-0.4,0.8-0.7,1.3c-0.1,0.3-0.2,0.5-0.3,0.5c0,0-0.2-0.2-0.3-0.4c-0.3-0.5-0.6-1-0.7-1.6
	c-0.1-0.4-0.3-2-0.5-4.3c-0.1-0.5-0.1-1.2-0.2-1.5c0-0.3-0.1-0.6-0.1-0.6s0,0,1.2,0c1.1,0,1.2,0,1.2,0c0.1,0,0.1,0.2,0.1,0.3
	c0,0.2,0,0.5,0.1,1c0,0.3,0.1,0.6,0.1,0.8c0,0.1,0,0.5,0.1,0.8c0.2,2.1,0.2,2.1,0.2,2.3c0.1,0.2,0.1,0.3,0.1,0.5
	C24,32.8,23.9,32.9,23.7,33.4z M28.5,34.8c-0.6,1.1-0.7,1.4-0.8,1.5c-0.1,0.1-0.1,0.1-1.1,0.1c-0.6,0-1.3,0-1.6,0
	c-0.6,0-0.6,0-0.8-0.1c-0.1,0-0.1-0.1-0.1-0.1s0.1-0.2,0.2-0.4c0.3-0.5,0.5-0.9,0.6-1.2c0.1-0.2,0.2-0.4,0.3-0.5l0.1-0.2H27h1.9
	l-0.2,0.3C28.7,34.3,28.5,34.6,28.5,34.8z M37.1,36.2L37.1,36.2L33,36.3c-2.9,0-4.1,0-4.1,0s0.1-0.2,0.2-0.4
	c0.2-0.5,0.3-0.6,0.4-0.9c0.1-0.4,0.3-0.6,0.4-0.8c0.2-0.2,0.4-0.3,0.7-0.3c0.2,0,0.2,0,0.4,0c0.2,0,0.3,0,0.7,0c0.3,0,0.5,0,0.5,0
	s0-0.7,0-3.5c0-2.4,0-3.2,0-3.3c0-0.1-0.1-0.2-0.2-0.2c0,0-0.2,0-0.3,0c-0.3,0-0.7,0-0.8-0.1c-0.1,0-0.2-0.1-0.2-0.2
	c0,0,0-0.2,0-0.3c0-0.2,0-1.8,0-1.8s1.2,0,2.7,0h2.7v1c0,0.5,0,1,0,1.1s0,0.2-0.2,0.2c-0.1,0-0.1,0-0.6,0c-0.6,0-0.5,0-0.7,0.1
	c-0.1,0.1-0.1-0.1-0.1,3.5v3.4h1.1c0.8,0,1.1,0,1.2,0c0,0,0.1,0,0.1,0.1c0,0,0,0.1,0,1.1C37.1,35.6,37.1,36.1,37.1,36.2z M48,34.5
	c-0.1,0.5-0.3,0.9-0.6,1.2s-0.6,0.4-1.2,0.6c-0.2,0-0.2,0-0.6,0c-0.5,0-0.6,0-1-0.1c-0.8-0.3-1.3-0.9-1.3-1.7v-0.2h1.1h1.1V33
	c0-1.2,0-1.3,0-1.4c-0.1-0.2-0.2-0.3-0.4-0.4c-0.1,0-0.2,0-1.7,0h-1.6v2.5v2.5h-1.2c-0.6,0-1.2,0-1.2,0s0-0.2,0-2.5v-2.5h-1.2H37V30
	v-1.2h1.1h1.1v-1v-1h-0.8h-0.8v-1.2v-1.2h0.8h0.8v-0.1c0-0.1,0-0.2,0-0.6v-0.1h1.1c1.1,0,1.1,0,1.1,0l0.1,0.1c0,0.1,0,0.1,0,0.4v0.3
	h0.4c0.5,0,0.8,0,1.1,0.1c1.1,0.3,1.7,1,1.9,2.1c0,0.2,0,0.4,0,1.2v0.8H45c0.1,0,0.3,0,0.4,0.1c0.7,0.1,1.2,0.3,1.6,0.7
	c0.3,0.3,0.5,0.6,0.6,1.1c0,0.2,0,0.2,0,2C48,34.1,48,34.4,48,34.5z M47.9,26.2c-0.1,0.3-0.4,0.5-0.7,0.6c-0.1,0-0.2,0-0.8,0.1
	c-0.6,0-0.6,0-0.7,0c-0.1,0-0.1-0.1-0.1-0.1c0-0.1,0-0.1,0-0.6s0-0.7,0.1-0.9c0-0.1,0.1-0.3,0.2-0.4c0.1-0.2,0.4-0.3,0.6-0.4
	c0.1,0,0.1,0,0.1,0c0.1,0,0.2,0,0.3,0C47.8,24.6,48.2,25.5,47.9,26.2z"/>
<path class="st0" d="M42.8,27c-0.1-0.1-0.2-0.1-0.6-0.1h-0.4v0.9c0,0.5,0,0.9,0,0.9s0.1,0,0.6,0H43v-0.2c0-0.1,0-0.5,0-0.8
	C42.9,27.2,42.9,27.1,42.8,27z"/>
</svg>
